<?xml version="1.0" encoding="UTF-8" standalone="no"?>
<!-- Generator: Adobe Illustrator 14.0.0, SVG Export Plug-In . SVG Version: 6.00 Build 43363)  -->
<svg
   xmlns:dc="http://purl.org/dc/elements/1.1/"
   xmlns:cc="http://creativecommons.org/ns#"
   xmlns:rdf="http://www.w3.org/1999/02/22-rdf-syntax-ns#"
   xmlns:svg="http://www.w3.org/2000/svg"
   xmlns="http://www.w3.org/2000/svg"
   xmlns:sodipodi="http://sodipodi.sourceforge.net/DTD/sodipodi-0.dtd"
   xmlns:inkscape="http://www.inkscape.org/namespaces/inkscape"
   version="1.1"
   id="Ebene_1"
   x="0px"
   y="0px"
   width="806.667px"
   height="202.667px"
   viewBox="0 0 806.667 202.667"
   enable-background="new 0 0 806.667 202.667"
   xml:space="preserve"
   sodipodi:version="0.32"
   inkscape:version="0.46"
   sodipodi:docname="Asp_logo.svg"
   inkscape:output_extension="org.inkscape.output.svg.inkscape"><metadata
   id="metadata2443"><rdf:RDF><cc:Work
       rdf:about=""><dc:format>image/svg+xml</dc:format><dc:type
         rdf:resource="http://purl.org/dc/dcmitype/StillImage" /></cc:Work></rdf:RDF></metadata><defs
   id="defs2441"><inkscape:perspective
     sodipodi:type="inkscape:persp3d"
     inkscape:vp_x="0 : 101.3335 : 1"
     inkscape:vp_y="0 : 1000 : 0"
     inkscape:vp_z="806.66699 : 101.3335 : 1"
     inkscape:persp3d-origin="403.3335 : 67.555669 : 1"
     id="perspective2445" /></defs><sodipodi:namedview
   inkscape:window-height="725"
   inkscape:window-width="1280"
   inkscape:pageshadow="2"
   inkscape:pageopacity="0.0"
   guidetolerance="10.0"
   gridtolerance="10.0"
   objecttolerance="10.0"
   borderopacity="1.0"
   bordercolor="#666666"
   pagecolor="#ffffff"
   id="base"
   showgrid="false"
   showguides="true"
   inkscape:guide-bbox="true"
   inkscape:zoom="2.0231427"
   inkscape:cx="665.30216"
   inkscape:cy="101.3335"
   inkscape:window-x="0"
   inkscape:window-y="25"
   inkscape:current-layer="Ebene_1" />
<path
   d="M 742.543,31.713 C 698.272,7.255 656.257,16.518 624.441,33.025 C 592.071,49.82 571.081,72.643 568.716,74.288 L 568.747,82.44 L 300.036,82.471 L 300.025,77.411 C 317.944,61.481 338.337,48.967 350.263,43.323 C 394.243,22.508 426.436,32.806 437.963,36.991 C 455.172,43.241 472.58948,55.983 494.57948,79.097 L 512.72748,79.097 C 497.16248,58.398 474.477,37.741 452.674,27.87 C 404.538,6.078 363.007,21.331 338.382,33.68 C 312.758,46.53 286.031,71.132 286.031,71.132 L 286.031,96.37 L 568.746,96.401 L 568.715,180.269 L 582.739,180.269 L 582.739,96.371 L 792.768,96.402 L 792.768,74.787 C 792.771,74.787 772.586,48.311 742.543,31.713 z M 582.772,82.44 L 582.741,80.316 C 597.439,66.735 621.223,47.237 648.773,37.586 C 689.407,23.35 716.908,35.734 720.678,37.117 C 755.411,49.861 778.745,79.91 778.745,79.91 L 778.714,82.409 L 582.772,82.44 z"
   id="path2436"
   sodipodi:nodetypes="cccccccccccsccccccccccccsccc" />
<path
   d="M 30.493,106.628 L 30.493,78.974 C 56.981,48.987 85.843,38.367 85.843,38.367 C 108.583,28.871 139.694,24.248 173.053,38.617 C 173.053,38.617 201.04,48.862 226.487,78.974 L 226.487,106.713 L 30.493,106.628 z M 286.18841,126.535 C 293.35141,143.11 312.798,161.715 325.358,169.182 C 376.921,199.833 428.598,184.409 431.893,183.593 C 431.893,183.593 476.207,174.763 512.107,133.447 L 512.107,106.71 L 240.48,106.712 L 240.459,73.725 C 213.284,41.99 190.794,31.744 190.794,31.744 C 148.189,8.38 102.835,12.128 68.06,31.329 C 68.06,31.329 46.236,40.658 16.416,73.56 L 16.468,181.286 L 30.43,181.286 L 30.399,120.641 L 226.466,120.641 L 226.487,181.301 L 240.481,181.301 L 240.46,120.61 L 498.062,120.61 L 498.062,128.076 C 477.54,150.608 454.718,160.436 454.718,160.436 C 399.243,186.757 355.681,167.846 347.433,164.768 C 347.433,164.768 321.58841,153.939 302.12841,126.607 L 286.18841,126.535 z"
   id="path2438"
   sodipodi:nodetypes="cccccccccccccccccccccccccccccc" />
</svg>